<svg xmlns="http://www.w3.org/2000/svg" width="18" height="19" viewBox="0 0 18 19">
    <g fill="none" fill-rule="evenodd">
        <g fill="#9AA5B1">
            <g>
                <path d="M10.06 9l3.22-3.22c.294-.293.294-.767 0-1.06-.293-.293-.767-.293-1.06 0L9 7.94 5.78 4.72c-.293-.293-.767-.293-1.06 0-.293.293-.293.767 0 1.06L7.94 9l-3.22 3.22c-.293.293-.293.767 0 1.06.146.147.338.22.53.22s.384-.073.53-.22L9 10.06l3.22 3.22c.146.147.338.22.53.22s.384-.073.53-.22c.294-.293.294-.767 0-1.06L10.06 9z" transform="translate(-1398 -192) translate(1398 192)"/>
            </g>
        </g>
    </g>
</svg>
