<svg xmlns="http://www.w3.org/2000/svg" width="24" height="24" viewBox="0 0 24 24">
    <g fill="none" fill-rule="evenodd">
        <g fill="#E6052E">
            <g>
                <path d="M12 15c.552 0 1 .448 1 1s-.448 1-1 1-1-.448-1-1 .448-1 1-1zm0-7c.552 0 1 .448 1 1v4c0 .552-.448 1-1 1s-1-.448-1-1V9c0-.552.448-1 1-1zm8.865 10.353c-.23.405-.675.647-1.193.647H4.328c-.518 0-.964-.242-1.192-.647-.108-.19-.25-.577.017-1.017l7.67-12.718c.468-.774 1.886-.774 2.353 0l7.672 12.718c.266.44.125.827.017 1.017m1.696-2.05L14.889 3.584c-.6-.992-1.68-1.584-2.89-1.584-1.21 0-2.29.592-2.887 1.584L1.44 16.303c-.57.943-.586 2.077-.046 3.033C1.973 20.363 3.098 21 4.328 21h15.344c1.23 0 2.355-.637 2.935-1.664.54-.956.523-2.09-.046-3.033" transform="translate(-892 -671) translate(892 671)"/>
            </g>
        </g>
    </g>
</svg>
