<svg xmlns="http://www.w3.org/2000/svg" width="24" height="24" viewBox="0 0 24 24">
    <g fill="none" fill-rule="evenodd">
        <g fill="#4D5966">
            <g>
                <path d="M15 16c.553 0 1 .448 1 1s-.447 1-1 1H9c-.552 0-1-.448-1-1s.448-1 1-1zm-3-4c.552 0 1 .448 1 1s-.448 1-1 1H9c-.552 0-1-.448-1-1s.448-1 1-1zm5.444 8H6.555C6.25 20 6 19.776 6 19.5v-15c0-.276.25-.5.555-.5H12v3.15C12 8.722 13.217 10 14.714 10H18v9.5c0 .276-.249.5-.556.5zM14 4.978L16.742 8h-2.028C14.32 8 14 7.619 14 7.15V4.978zm5.74 3.35l-5.444-6c-.19-.209-.458-.328-.74-.328h-7C5.145 2 4 3.122 4 4.5v15C4 20.878 5.146 22 6.555 22h10.89C18.852 22 20 20.878 20 19.5V9c0-.249-.093-.488-.26-.672z" transform="translate(-256 -671) translate(256 671)"/>
            </g>
        </g>
    </g>
</svg>
