<svg xmlns="http://www.w3.org/2000/svg" width="18" height="18" viewBox="0 0 18 18">
    <g fill="none" fill-rule="evenodd">
        <g fill-rule="nonzero">
            <g>
                <g>
                    <g>
                        <g>
                            <g>
                                <path fill="#FFF" d="M15.75 4.5H12V3.248c-.037-1-.875-1.782-1.875-1.748h-2.25c-1-.034-1.838.748-1.875 1.748V4.5H2.25c-.414 0-.75.336-.75.75s.336.75.75.75H3v8.25c0 1.243 1.007 2.25 2.25 2.25h7.5c1.243 0 2.25-1.007 2.25-2.25V6h.75c.414 0 .75-.336.75-.75s-.336-.75-.75-.75zM7.5 3.248c0-.12.157-.248.375-.248h2.25c.217 0 .375.127.375.248V4.5h-3V3.248zm6 11.002c0 .414-.336.75-.75.75h-7.5c-.414 0-.75-.336-.75-.75V6h9v8.25z" transform="translate(-1221 -882) translate(371 855) translate(769 16) translate(0 2) translate(24 8) translate(57 1)"/>
                                <path fill="#FFF" d="M6.75 12.75c.414 0 .75-.336.75-.75V9c0-.414-.336-.75-.75-.75S6 8.586 6 9v3c0 .414.336.75.75.75zM11.25 12.75c.414 0 .75-.336.75-.75V9c0-.414-.336-.75-.75-.75s-.75.336-.75.75v3c0 .414.336.75.75.75z" transform="translate(-1221 -882) translate(371 855) translate(769 16) translate(0 2) translate(24 8) translate(57 1)"/>
                            </g>
                        </g>
                    </g>
                </g>
            </g>
        </g>
    </g>
</svg>
